# xmcd
#
# Track frame offsets:
#	150
#	14930
#	31556
#	44232
#	58995
#	71912
#	85982
#	99398
#	113701
#	131899
#	147888
#	158712
#	172836
#	184146
#	195562
#	210016
#	224809
#
# Disc length: 3217 seconds
#
# Revision: 1
# Processed by: cddbd v1.5.2PL0 Copyright (c) Steve Scherf et al.
# Submitted via: EasyCDDAExtractor 16.0.6.1
#
DISCID=fe0c8f11
DTITLE=Συλλογικός δίσκος - Μέσ' στου Αιγαίου τα νησιά 1
DYEAR=1900
DGENRE=Παραδοσιακή
TTITLE0=Κονιτοπούλου Ειρήνη - Αρμενάκι
TTITLE1=Μάγκελ Έλενα - Μάτια σαν και τα δικά σου
TTITLE2=Λεγάκη Ελένη - Ώπα, ώπα
TTITLE3=Κονιτοπούλου Αγγελική - Μα γιάντα την τραγιάσκα σου
TTITLE4=Χατζηδάκη Δικαία - Περβολαριά
TTITLE5=Σαρρή Έφη - Έλα να πάμε στο νησί
TTITLE6=Σκουλαξινού Μαρία - Αρτεμώνας
TTITLE7=Μάγκελ Έλενα - Σαμιώτισσα-Ωραία Αιγιώτισσα
TTITLE8=Κονδύλης Μανώλης - Σάλα, σάλα
TTITLE9=Κονιτοπούλου Ειρήνη - Πάρε με στη βάρκα μέσα
TTITLE10=Κορρέ Λέττα - Καναρίνι μου γλυκό
TTITLE11=Κονιτόπουλος Κώστας - Στην Πάρο και στη Νάξο
TTITLE12=Κονιτόπουλος Γιώργος - Η αγάπη μου στην Ικαριά
TTITLE13=Χατζοπούλου Μαριάννα - Νησιώτικος γάμος
TTITLE14=Μάγκελ Έλενα - Καλέ συ Παναγιά μου
TTITLE15=Μπίλης Γιώργος - Γειά σου καπετάνισσα
TTITLE16=Ιωσηφέλης Γιώργος - Αυτό το καλοκαίρι
EXTD=
EXTT0=
EXTT1=
EXTT2=
EXTT3=
EXTT4=
EXTT5=
EXTT6=
EXTT7=
EXTT8=
EXTT9=
EXTT10=
EXTT11=
EXTT12=
EXTT13=
EXTT14=
EXTT15=
EXTT16=
PLAYORDER=
